<svg width="112" height="32" viewBox="0 0 112 32" fill="none" xmlns="http://www.w3.org/2000/svg">
<g clip-path="url(#clip0_12_781)">
<path d="M92.8608 5.92947V11.1611L92.1824 11.1402C91.3977 7.8268 89.4323 5.34005 85.7039 6.36195C82.4656 7.24958 82.0976 10.7827 85.3639 12.2911C88.0547 13.5345 93.9734 14.2198 94.7023 17.7721C95.658 22.4317 91.8023 25.6596 87.3781 25.4451C85.8539 25.3701 82.8998 23.9436 81.8291 24.2645C81.5814 24.3378 81.3146 24.7511 81.271 24.7511H73.5038V20.5658L72.0076 22.9897C69.7999 26.2002 62.9238 26.2054 60.9148 22.9514C60.6969 22.6026 60.076 20.9686 60.076 20.653V6.80141H56.7627V5.92947H63.9126V19.9537C63.9826 20.7023 64.1156 21.4438 64.3102 22.1701C65.1333 24.9237 68.0612 25.1835 70.1748 23.5984C71.4548 22.6375 73.3295 19.6223 73.3295 18.0372V6.80141H70.0161V5.92947H77.3404V24.0483H80.6537V18.4679C80.856 18.4975 81.1769 18.3999 81.3251 18.4941C81.4733 18.5882 82.3208 21.2581 82.9207 22.0393C84.8146 24.5052 89.8683 26.0991 91.3262 22.5974C93.9019 16.4049 82.8004 18.2011 81.2954 13.2084C79.8655 8.45983 83.5764 5.0122 88.2465 5.39411C89.3451 5.48653 90.6443 6.26604 91.3855 6.28871C91.9732 6.30964 92.2679 5.81961 92.8608 5.92947Z" fill="#F2F2F0"/>
<path d="M43.5966 16.0279L41.8527 14.1096C41.691 14.3756 41.5964 14.6771 41.5771 14.9878C41.5579 15.2986 41.6146 15.6093 41.7423 15.8933C41.87 16.1772 42.0649 16.4258 42.3102 16.6176C42.5555 16.8094 42.8438 16.9386 43.1502 16.994C47.4593 17.8903 56.3914 15.0077 57.905 21.2438C59.185 26.5173 55.216 30.9519 50.1797 31.8361C45.8567 32.5946 38.7678 30.7078 40.5361 24.9879C41.0314 23.38 43.2077 21.0973 45.0789 21.603C43.9245 22.7365 43.2252 23.9974 43.2286 25.6662C43.2391 33.4823 56.6878 32.2441 55.8891 24.3025C55.4078 19.5191 48.5161 21.1113 45.1591 20.9107C41.3924 20.6875 39.3921 19.7807 39.8473 15.5884C39.9938 14.23 41.2738 13.3667 41.3679 12.7773C41.5737 11.4886 40.911 10.6149 41.6783 8.89371C43.3176 5.19845 48.5405 3.77371 52.1154 5.25949C55.8089 6.79235 58.2974 11.0143 55.5386 14.5508C54.3877 16.0244 53.5872 16.2127 51.7021 16.0331C53.4076 14.2177 53.575 9.52848 52.5514 7.43409C51.3185 4.90548 47.1628 4.74679 45.6282 6.91093C44.4249 8.60946 44.3569 12.8697 45.2707 14.7008C45.5393 15.2379 46.0031 15.4855 46.1217 16.0279H43.5966Z" fill="#F2F2F0"/>
<path d="M23.4553 5.9287V20.1273C23.4553 21.1038 23.9784 22.8791 24.6673 23.615C26.6169 25.7077 29.5902 24.1765 31.0254 22.2844C31.6951 21.4125 32.8722 18.9205 32.8722 17.8585V6.80063H29.5588V5.9287H36.7087V24.0475H40.1964V24.745H33.0466V20.5598L31.3027 23.2558C28.5892 26.9371 19.6188 25.6972 19.6188 20.64V6.80063H16.3054V5.9287H23.4553Z" fill="#F2F2F0"/>
<path d="M19.2679 24.388C16.6242 26.029 12.268 25.9575 11.5948 22.2953C10.831 23.2615 10.1527 24.2868 8.97904 24.8205C6.56203 25.9278 0.697401 25.6854 0.1289 22.3459C-1.09006 15.1716 6.644 16.7411 10.3637 14.0137C11.9645 12.8401 11.8913 8.44205 10.7264 7.05393C9.56149 5.66581 6.01969 5.80183 5.23146 7.49862C4.7083 8.60249 5.29598 8.34788 5.70056 9.11867C7.29969 12.1722 2.93827 14.1759 1.50307 11.5706C0.456747 9.67322 2.11691 7.20216 3.85904 6.30407C7.48105 4.42941 14.5908 5.0572 15.243 10.0325C15.7226 13.6737 14.957 18.2775 15.243 22.046C15.3982 24.0218 15.8133 24.6827 17.8309 24.095C18.4517 23.9171 18.9819 23.1934 19.2679 24.388ZM11.4205 14.4601C8.63026 16.4569 3.90786 16.1779 3.91135 20.6456C3.91135 25.6279 9.73239 25.3698 10.9758 21.4217C11.1031 21.0153 11.4205 19.7667 11.4205 19.4267V14.4601Z" fill="#F2F2F0"/>
<path d="M101.755 -1.52588e-05V5.92914H108.033V6.80107H101.755V21.8716C101.755 22.7924 102.627 24.327 103.626 24.5327C105.937 25.0071 107.543 22.9946 107.86 20.9125L108.732 21.0869C108.296 22.9179 107.59 24.4578 105.689 25.0977C103.788 25.7377 100.253 25.4587 98.8878 23.8561C98.5983 23.5073 97.9147 22.2535 97.9147 21.8646V6.80107H94.427V5.92914H97.9147V0.348759C98.539 0.348759 99.0866 0.718459 99.7231 0.687069C100.421 0.652192 101.118 0.210993 101.755 -1.52588e-05Z" fill="#F2F2F0"/>
<path d="M108.683 13.9793C112.065 13.3672 112.447 18.1018 109.998 18.6023C106.169 19.387 105.853 14.492 108.683 13.9793Z" fill="#F2F2F0"/>
</g>
<defs>
<clipPath id="clip0_12_781">
<rect width="111.573" height="32" fill="white"/>
</clipPath>
</defs>
</svg>
