<svg width="224" height="64" viewBox="0 0 224 64" fill="none" xmlns="http://www.w3.org/2000/svg">
<g clip-path="url(#clip0_12_1079)">
<path d="M185.722 11.859V22.3222L184.365 22.2803C182.795 15.6536 178.865 10.6801 171.408 12.7239C164.931 14.4992 164.195 21.5654 170.728 24.5822C176.109 27.069 187.947 28.4397 189.405 35.5442C191.316 44.8634 183.605 51.3193 174.756 50.8903C171.708 50.7403 165.8 47.8873 163.658 48.5291C163.163 48.6755 162.629 49.5021 162.542 49.5021H147.008V41.1316L144.015 45.9795C139.6 52.4005 125.848 52.4109 121.83 45.9028C121.394 45.2052 120.152 41.9372 120.152 41.306V13.6028H113.525V11.859H127.825V39.9074C127.965 41.4047 128.231 42.8876 128.62 44.3403C130.267 49.8474 136.122 50.3671 140.35 47.1967C142.91 45.275 146.659 39.2447 146.659 36.0743V13.6028H140.032V11.859H154.681V48.0966H161.307V36.9358C161.712 36.9951 162.354 36.7998 162.65 36.9881C162.947 37.1765 164.642 42.5162 165.841 44.0787C169.629 49.0104 179.737 52.1982 182.652 45.1948C187.804 32.8098 165.601 36.4022 162.591 26.4168C159.731 16.9197 167.153 10.0244 176.493 10.7882C178.69 10.9731 181.289 12.5321 182.771 12.5775C183.946 12.6193 184.536 11.6392 185.722 11.859Z" fill="#F2F2F0"/>
<path d="M87.1932 32.0561L83.7055 28.2196C83.3819 28.7516 83.1927 29.3544 83.1542 29.976C83.1157 30.5975 83.2291 31.219 83.4846 31.7869C83.74 32.3548 84.1299 32.852 84.6204 33.2355C85.111 33.6191 85.6876 33.8774 86.3003 33.9883C94.9185 35.781 112.783 30.0158 115.81 42.4879C118.37 53.0348 110.432 61.9042 100.359 63.6724C91.7133 65.1896 77.5357 61.4159 81.0722 49.9761C82.0627 46.7604 86.4154 42.195 90.1578 43.2064C87.8489 45.4734 86.4503 47.9951 86.4573 51.3328C86.4782 66.9649 113.376 64.4886 111.778 48.6054C110.816 39.0386 97.0321 42.2229 90.3182 41.8218C82.7847 41.3753 78.7843 39.5617 79.6946 31.1772C79.9875 28.4602 82.5475 26.7338 82.7359 25.555C83.1474 22.9775 81.8221 21.2302 83.3567 17.7878C86.6352 10.3972 97.0809 7.54776 104.231 10.5193C111.618 13.585 116.595 22.0288 111.077 29.102C108.775 32.0491 107.174 32.4258 103.404 32.0666C106.815 28.4358 107.15 19.0573 105.103 14.8685C102.637 9.8113 94.3256 9.49392 91.2564 13.8222C88.8499 17.2193 88.7139 25.7398 90.5414 29.4019C91.0785 30.4762 92.0063 30.9714 92.2435 32.0561H87.1932Z" fill="#F2F2F0"/>
<path d="M46.9106 11.8594V40.2565C46.9106 42.2097 47.9569 45.7602 49.3345 47.232C53.2338 51.4173 59.1804 48.3551 62.0508 44.5709C63.3901 42.827 65.7444 37.843 65.7444 35.719V13.6032H59.1177V11.8594H73.4174V48.097H80.3929V49.4921H66.0931V41.1215L62.6054 46.5135C57.1785 53.8762 39.2375 51.3964 39.2375 41.2819V13.6032H32.6108V11.8594H46.9106Z" fill="#F2F2F0"/>
<path d="M38.5357 48.7763C33.2483 52.0582 24.5359 51.9152 23.1897 44.591C21.6621 46.5232 20.3053 48.574 17.9581 49.6412C13.1241 51.8559 1.3948 51.3711 0.2578 44.6921C-2.18013 30.3436 13.288 33.4825 20.7273 28.0277C23.9291 25.6805 23.7826 16.8844 21.4528 14.1081C19.123 11.3319 12.0394 11.6039 10.4629 14.9975C9.4166 17.2053 10.592 16.696 11.4011 18.2376C14.5994 24.3447 5.87655 28.3521 3.00614 23.1414C0.913494 19.3467 4.23382 14.4046 7.71807 12.6084C14.9621 8.85909 29.1816 10.1147 30.486 20.0652C31.4452 27.3476 29.914 36.5552 30.486 44.0922C30.7964 48.0438 31.6265 49.3657 35.6618 48.1903C36.9035 47.8346 37.9637 46.3872 38.5357 48.7763ZM22.8409 28.9206C17.2605 32.914 7.81573 32.356 7.8227 41.2916C7.8227 51.256 19.4648 50.7399 21.9515 42.8436C22.2061 42.031 22.8409 39.5338 22.8409 38.8536V28.9206Z" fill="#F2F2F0"/>
<path d="M203.509 0V11.8583H216.065V13.6022H203.509V43.7432C203.509 45.5847 205.253 48.6539 207.252 49.0655C211.873 50.0142 215.085 45.9893 215.72 41.825L217.464 42.1737C216.592 45.8359 215.179 48.9155 211.378 50.1955C207.576 51.4755 200.507 50.9175 197.776 47.7123C197.197 47.0147 195.829 44.507 195.829 43.7293V13.6022H188.854V11.8583H195.829V0.697548C197.078 0.697548 198.173 1.43695 199.446 1.37417C200.841 1.30441 202.236 0.422016 203.509 0Z" fill="#F2F2F0"/>
<path d="M217.367 27.9567C224.13 26.7325 224.893 36.2017 219.997 37.2027C212.338 38.7721 211.706 28.9821 217.367 27.9567Z" fill="#F2F2F0"/>
</g>
<defs>
<clipPath id="clip0_12_1079">
<rect width="223.146" height="64" fill="white"/>
</clipPath>
</defs>
</svg>
