<svg width="20" height="20" viewBox="0 0 20 20" fill="none" xmlns="http://www.w3.org/2000/svg">
<path d="M2.04473 6.6164C2.27915 6.38204 2.59705 6.25038 2.92852 6.25038C3.26 6.25038 3.5779 6.38204 3.81231 6.6164L9.99981 12.8039L16.1873 6.6164C16.4242 6.39586 16.7374 6.27581 17.061 6.28151C17.3846 6.28721 17.6934 6.4182 17.9224 6.64694C18.1514 6.87568 18.2828 7.18433 18.2888 7.50793C18.2949 7.83154 18.1752 8.14488 17.9549 8.38202L10.8846 15.4543C10.6502 15.6887 10.3323 15.8203 10.0008 15.8203C9.66931 15.8203 9.35141 15.6887 9.117 15.4543L2.04473 8.38398C1.81037 8.14956 1.67871 7.83166 1.67871 7.50019C1.67871 7.16871 1.81037 6.85081 2.04473 6.6164Z" fill="#0D0D0D"/>
</svg>
