<svg width="104" height="26" viewBox="0 0 104 26" fill="none" xmlns="http://www.w3.org/2000/svg">
<path d="M63.211 7.39344C61.5415 7.39344 60.2302 7.75158 58.9182 8.46647C58.9182 4.65026 58.9182 1.19218 59.038 0L51.0468 1.43048V2.14606L51.8815 2.26521C52.9539 2.50351 53.3134 3.09925 53.5496 4.53111C53.79 7.39344 53.6694 22.659 53.5496 25.1639C55.6964 25.6412 57.9629 25.9993 60.2295 25.9993C66.5506 25.9993 70.3669 22.0632 70.3669 15.8613C70.3669 10.972 67.2662 7.39344 63.211 7.39344ZM60.4678 24.6866C59.9905 24.6866 59.3934 24.6866 59.0367 24.5681C58.9168 22.8987 58.7984 15.8613 58.9168 9.66003C59.6324 9.42104 60.109 9.3019 60.7061 9.3019C63.3315 9.3019 64.7627 12.4025 64.7627 16.2181C64.762 20.9902 62.9727 24.6866 60.4678 24.6866ZM20.9909 0.476597H0V1.54963L1.19287 1.66878C2.7425 1.90707 3.33962 2.86096 3.57723 5.12686C3.93605 9.42036 3.81622 17.1733 3.57723 20.869C3.33893 23.1356 2.74318 24.2093 1.19287 24.3271L0 24.5668V25.5206H13.4769V24.5668L12.0458 24.3271C10.4955 24.2086 9.89902 23.1356 9.66072 20.869C9.54088 19.318 9.42173 16.8131 9.42173 13.7132L12.2841 13.8323C14.0734 13.8323 14.9074 15.2635 15.2655 17.2904H16.3393V8.8253H15.2655C14.9067 10.8529 14.0734 12.2834 12.2841 12.2834L9.42242 12.4032C9.42242 8.34801 9.54157 4.5318 9.66141 2.2659H13.8351C17.0562 2.2659 18.7257 4.29281 19.9179 7.87142L21.1107 7.51328L20.9909 0.476597Z" fill="black" fill-opacity="0.35"/>
<path d="M27.7893 7.15516C33.7529 7.15516 36.7344 11.2104 36.7344 16.5769C36.7344 21.7051 33.3948 26 27.4312 26C21.4682 26 18.4867 21.9441 18.4867 16.5769C18.4867 11.4487 21.8256 7.15516 27.7893 7.15516ZM27.4312 8.34803C24.8071 8.34803 24.0915 11.9259 24.0915 16.5769C24.0915 21.1087 25.2844 24.8058 27.6701 24.8058C30.4113 24.8058 31.1282 21.2278 31.1282 16.5769C31.1282 12.0451 29.9367 8.34803 27.4312 8.34803ZM71.9165 16.6967C71.9165 11.8068 75.0171 7.15516 81.0999 7.15516C86.1076 7.15516 88.494 10.8529 88.494 15.7422H77.4022C77.2823 20.1548 79.4291 23.3753 83.7233 23.3753C85.6317 23.3753 86.5856 22.8994 87.7791 22.0639L88.2551 22.6597C87.0622 24.3292 84.4388 26 81.0999 26C75.7327 25.9993 71.9165 22.1831 71.9165 16.6967ZM77.4022 14.4308L83.0077 14.311C83.0077 11.9259 82.6495 8.34803 80.6226 8.34803C78.5957 8.34803 77.5206 11.687 77.4022 14.4308ZM102.689 8.10973C101.257 7.5126 99.3497 7.15516 97.2029 7.15516C92.791 7.15516 90.0464 9.7785 90.0464 12.8798C90.0464 15.9811 92.072 17.2925 94.9377 18.247C97.9185 19.3194 98.754 20.1548 98.754 21.586C98.754 23.0171 97.6802 24.3285 95.7718 24.3285C93.5066 24.3285 91.8357 23.0171 90.5244 19.4385L89.689 19.6782L89.8088 24.9256C91.24 25.5213 93.8633 25.9993 96.1299 25.9993C100.782 25.9993 103.764 23.6129 103.764 19.9165C103.764 17.4116 102.451 15.9811 99.3504 14.7876C96.0101 13.4763 94.8186 12.6415 94.8186 11.0905C94.8186 9.54021 95.8937 8.46649 97.3249 8.46649C99.4702 8.46649 100.901 9.7785 101.976 12.999L102.811 12.7607L102.689 8.10973ZM52.2383 7.63244C50.2114 6.44095 46.6328 7.03601 44.725 11.3302L44.8435 7.15585L36.8536 8.70616V9.42174L37.6883 9.54089C38.7627 9.66073 39.2386 10.2565 39.3585 11.8075C39.5968 14.6698 39.4776 19.6796 39.3585 22.1838C39.2386 23.6136 38.7627 24.3292 37.6883 24.449L36.8536 24.5688V25.5227H47.9448V24.5688L46.5136 24.449C45.3214 24.3292 44.9633 23.6136 44.8435 22.1838C44.6052 19.9172 44.6052 15.3854 44.725 12.5231C45.3207 11.6876 47.9448 10.9727 50.3298 12.5231L52.2383 7.63244Z" fill="black" fill-opacity="0.35"/>
</svg>
