<svg width="53" height="26" viewBox="0 0 53 26" fill="none" xmlns="http://www.w3.org/2000/svg">
<g clip-path="url(#clip0_12_819)">
<path d="M50.391 19.0667C51.3849 17.2001 51.8956 15.1145 51.8767 13C51.8871 5.86032 46.0721 0.0453968 38.8768 0C31.9806 0.0433333 26.3266 5.45794 25.8768 12.2571C25.9139 11.8775 25.8788 11.4792 25.8768 11.1429H13.8672V16.5905L17.7053 16.7143C16.5725 18.0617 14.8783 18.9594 13.0006 18.9429C12.2188 18.9478 11.4438 18.7974 10.7205 18.5005C9.99726 18.2036 9.34016 17.7661 8.78733 17.2132C8.2345 16.6604 7.79694 16.0033 7.50003 15.2801C7.20312 14.5568 7.05277 13.7818 7.0577 13C7.05151 9.75825 9.7031 7.10254 13.0006 7.05714C15.1941 7.10254 17.1275 8.32 18.2006 10.1524L24.2672 6.68571C23.1504 4.67266 21.5186 2.99268 19.5388 1.81788C17.5591 0.643079 15.3026 0.0156943 13.0006 0C5.80516 0.0433333 -0.00975647 5.85825 0.000560995 13C-0.00516364 14.7088 0.327184 16.4018 0.978467 17.9816C1.62975 19.5615 2.58711 20.9968 3.79541 22.2052C5.00371 23.4135 6.43909 24.3708 8.01891 25.0221C9.59873 25.6734 11.2918 26.0057 13.0006 26C19.8864 26.0165 25.5321 20.6205 26.0006 13.8667C26.3452 20.6205 31.9909 26.0186 38.8768 26C41.4128 26.0165 43.7569 25.3046 45.6863 24.019L47.2958 25.6286L52.1244 20.8L50.391 19.0667Z" fill="black" fill-opacity="0.35"/>
<path d="M44.8193 13.8671L43.5812 12.7529L39.0003 17.5814L40.3622 18.8195C39.872 18.9079 39.3745 18.9494 38.8765 18.9433C35.6265 18.9598 32.9728 16.3062 32.9336 13.0005C32.9601 11.4326 33.5948 9.93639 34.7036 8.82759C35.8124 7.71879 37.3086 7.08415 38.8765 7.05762C42.1739 7.10301 44.8276 9.75873 44.8193 13.0005C44.8276 13.3121 44.8069 13.5906 44.8193 13.8671Z" fill="white"/>
</g>
<defs>
<clipPath id="clip0_12_819">
<rect width="52.1251" height="26" fill="white"/>
</clipPath>
</defs>
</svg>
