<svg width="216" height="225" viewBox="0 0 216 225" fill="none" xmlns="http://www.w3.org/2000/svg">
<path d="M215.669 213.298C186.077 231.666 137.318 230.866 129.783 189.875C121.234 200.689 113.641 212.166 100.504 218.139C73.4501 230.534 7.80614 227.821 1.4428 190.441C-12.2013 110.138 74.3675 127.706 116.002 97.1772C133.921 84.0406 133.102 34.8126 120.063 19.2751C107.024 3.73762 67.3795 5.26014 58.5567 24.2526C52.7009 36.6084 59.2789 33.7585 63.8074 42.3861C81.7068 76.5647 32.8886 98.9925 16.8241 69.8305C5.11246 48.5933 23.695 20.9343 43.1949 10.8817C83.7368 -10.1017 163.318 -3.07468 170.618 52.6143C175.986 93.3709 167.417 144.902 170.618 187.084C172.355 209.199 177.001 216.597 199.585 210.019C206.534 208.028 212.468 199.928 215.669 213.298ZM127.831 102.174C96.6001 124.524 43.7415 121.401 43.7805 171.41C43.7805 227.177 108.936 224.288 122.854 180.096C124.279 175.548 127.831 161.572 127.831 157.766V102.174Z" fill="#F2F2F0" fill-opacity="0.2"/>
</svg>
