<svg width="19" height="21" viewBox="0 0 19 21" fill="none" xmlns="http://www.w3.org/2000/svg">
<path d="M8.6 8.04264C7.33102 7.66063 5.97509 7.69206 4.72481 8.13248C3.47453 8.5729 2.39348 9.39991 1.63521 10.496C0.876932 11.5922 0.479995 12.9017 0.500776 14.2386C0.521558 15.5755 0.959002 16.8717 1.75097 17.9433C2.54294 19.0149 3.64917 19.8072 4.91252 20.2078C6.17587 20.6084 7.53211 20.5968 8.78859 20.1748C10.0451 19.7527 11.1379 18.9417 11.9119 17.8568C12.6858 16.7719 13.1016 15.4683 13.1 14.1313V7.77002C14.3 8.98169 16.1 9.58752 18.5 9.58752V5.04376C16.1 5.04376 14.3 3.52917 13.1 0.5H8.6V14.1313M8.6 14.1313C8.6 13.7718 8.49443 13.4204 8.29664 13.1215C8.09886 12.8226 7.81773 12.5897 7.48883 12.4521C7.15992 12.3146 6.798 12.2786 6.44883 12.3487C6.09967 12.4188 5.77894 12.5919 5.5272 12.8461C5.27547 13.1003 5.10404 13.4241 5.03458 13.7767C4.96513 14.1293 5.00078 14.4947 5.13701 14.8268C5.27325 15.1589 5.50396 15.4428 5.79997 15.6425C6.09598 15.8422 6.44399 15.9488 6.8 15.9488C7.27739 15.9488 7.73522 15.7573 8.07279 15.4164C8.41035 15.0756 8.6 14.6133 8.6 14.1313Z" stroke="#F1EBDF" stroke-linecap="round" stroke-linejoin="round"/>
</svg>
