<svg width="101" height="26" viewBox="0 0 101 26" fill="none" xmlns="http://www.w3.org/2000/svg">
<path fill-rule="evenodd" clip-rule="evenodd" d="M21.8764 22.1208C23.6893 24.3605 26.4894 26 29.4167 26C32.543 26 35.3617 24.223 37.2281 21.7951C39.1313 19.3031 40.065 16.1581 40.065 13.0414C40.065 9.7874 39.041 6.48891 36.9837 3.94234C35.1981 1.73159 32.4162 0.07272 29.5162 0.07272C26.3621 0.07272 23.5256 1.82194 21.6406 4.26857C19.7288 6.76054 18.8042 9.90554 18.8042 13.0318C18.8042 16.2854 19.8106 19.5753 21.8764 22.1208ZM8.81784 0.60753H0V0.860479H2.32037L11.4281 25.7636L19.2576 0.860479H21.3604V0.60753H16.6025V0.860479H18.7865L13.2313 18.8763L6.65202 0.860479H8.81784V0.60753ZM59.3681 8.8269V0.172176H59.1703C58.5633 0.625166 57.8563 1.14178 57.0676 1.14178C56.4339 1.14178 55.7905 0.933682 55.2012 0.716086L54.6841 0.51661C53.9771 0.235313 53.2252 0 52.4637 0C50.5155 0 48.685 0.860479 47.1716 2.02996C43.8004 4.63056 42.2143 9.08041 42.2143 13.2404C42.2143 18.9309 45.64 25.7909 52.0739 25.7909C53.4782 25.7909 54.6932 25.384 55.9622 24.8219L56.5242 24.5139C57.1483 24.1695 57.8462 23.9155 58.5628 23.9155C59.55 23.9155 60.3206 24.4503 60.8104 25.2658H60.9815V15.2608H62.9212V14.9988H54.629V15.2608H56.8943V21.9497C56.8943 22.3936 56.8761 22.8278 56.6403 23.2176C55.7253 24.7133 53.8942 25.5834 52.1728 25.5834C50.0064 25.5834 48.8374 24.5599 48.031 22.4754C46.8802 19.5031 46.6267 16.2319 46.6267 13.0596C46.6267 9.51625 47.0978 0.22726 52.2814 0.22726C54.5381 0.22726 56.2691 2.20221 57.3563 3.96054C58.2713 5.46479 58.797 7.12317 59.1687 8.8269H59.3681ZM70.6871 0.60753H61.8425L61.8431 0.860479H64.2618V19.1844C64.2618 23.7342 68.6491 25.6642 72.6273 25.6642C76.1428 25.6642 79.8948 23.915 79.8948 19.9646V0.860479H84.2815V25.0118H82.2061V25.2658H100.05V15.8865H99.8503C99.8054 16.7929 99.7321 17.7079 99.5787 18.6052C99.2979 20.2095 98.4904 21.6957 97.331 22.8374C95.9711 24.1781 94.0598 25.0118 92.1378 25.0118H88.4319V12.7597C88.8757 12.7233 89.3105 12.696 89.7544 12.696C92.5732 12.696 93.6331 15.2698 94.0229 17.6709H94.2497V7.62102H94.0229C93.8871 10.2676 93.0806 12.4061 89.9726 12.4061C89.4554 12.4061 88.9383 12.3698 88.4319 12.3158V0.860479H90.9052C93.1978 0.860479 95.4278 1.04176 97.0674 2.89954C98.6893 4.73912 99.1428 7.15901 99.4059 9.5152H99.5781V0.606966H76.7498V0.860479H79.5221V19.8924C79.5221 22.8743 77.0664 24.9037 74.1482 24.9037C71.439 24.9037 68.34 23.0727 68.34 20.0646V0.860962H70.6871V0.60753ZM35.5879 13.0318C35.5879 9.43386 34.3013 0.443809 29.4349 0.443809C24.5503 0.443809 23.2813 9.42476 23.2813 13.0318C23.2813 16.6383 24.5594 25.6283 29.4349 25.6283C34.3013 25.6278 35.5879 16.6298 35.5879 13.0318Z" fill="black" fill-opacity="0.35"/>
</svg>
